# xmcd
#
# Track frame offsets: 
#        150
#        18625
#        42397
#        214862
#        240564
#        246272
#
# Disc length: 3583 seconds
#
# Revision: 0
# Processed by: cddbd v1.5.2PL0 Copyright (c) Steve Scherf et al.
# Submitted via: ExactAudioCopy v0.99pb5
#
DISCID=500dfd06
DTITLE=Sunchild - The Wrap
DYEAR=2010
DGENRE=Progressive Rock
TTITLE0=Day Of Destiny
TTITLE1=The Wrap (Intro)
TTITLE2=Under The Wrap
TTITLE3=An Angel
TTITLE4=Illusionist
TTITLE5=The Wrap (Outro)
EXTD=
EXTT0=
EXTT1=
EXTT2=
EXTT3=
EXTT4=
EXTT5=
PLAYORDER=
